# xmcd
# 
# Track frame offsets:
#     150
#     5902
#     27557
#     45327
#     68520
#     85885
#     108995
#     125747
#     139470
#     154670
#     182680
#     206225
#     224095
#     245877
#     265077
#     285555
# 
# Disc length: 4088
# 
# Revision: 1
# Processed by: cddbd v1.5.2PL0 Copyright (c) Steve Scherf et al.
# Submitted via: fre:ac v1.0.17
# 
DISCID=f80ff610
DTITLE=Sandra Cross with Alan Weekes - Dreams Come True...
DYEAR=1998
DGENRE=Jazz
TTITLE0=Lonely (Instrumental)
TTITLE1=You're Lying
TTITLE2=Moon River
TTITLE3=Someome To Watch Over Me
TTITLE4=All Of Me
TTITLE5=Oh Me Oh My
TTITLE6=Agua Da Beber
TTITLE7=The Gift (Ricardo Bossa Nova)
TTITLE8=My Baby Just Cares For Me
TTITLE9=I Want You
TTITLE10=This Masquerade
TTITLE11=I'm A Fool To Want You
TTITLE12=Crazy He Calls Me
TTITLE13=The Look Of Love
TTITLE14=Foundation Of Love
TTITLE15=Lonely
EXTD=YEAR: 1998
EXTT0=
EXTT1=
EXTT2=
EXTT3=
EXTT4=
EXTT5=
EXTT6=
EXTT7=
EXTT8=
EXTT9=
EXTT10=
EXTT11=
EXTT12=
EXTT13=
EXTT14=
EXTT15=
PLAYORDER=
